<?xml version="1.0" encoding="UTF-8"?>
<svg xmlns="http://www.w3.org/2000/svg" viewBox="0 0 24 24" width="2400" height="2400"><path d="M21 4c.5 0 1 .5.997 1L22 20h-1V5H3v15H2V5c0-.5.5-1 1-1zm-1 2v1H4V6zM8.219 9.873C8.532 9.807 10.15 9.61 12 9.61s3.469.196 3.782.262c.541.113 1.036 1.59 1.126 1.792.035.078.11.241.193.41.057-.102.135-.14.25-.175.153-.049.798.1.95.157s.141.106.146.176a.7.7 0 0 1-.084.276.4.4 0 0 1-.182.145c-.158.073-.34.057-.34.057.24.059.512.136.652.218.355.207.785.777.873 1.223.09.446.134 3.64.134 3.773s-.037 1.14-.109 1.624c-.066.453-.627.451-.627.451h-1.418c-.47 0-.502-.446-.502-.446s-.049-.374-.098-.565c-.02-.079-.077-.13-.161-.16-.583-.208-1.571-.214-1.571-.214H8.987s-.988.006-1.572.215c-.084.03-.141.08-.161.16-.05.19-.098.564-.098.564S7.124 20 6.655 20H5.237s-.561.002-.628-.451c-.072-.485-.11-1.492-.11-1.625s.046-3.325.135-3.772.518-1.016.873-1.223c.14-.082.413-.16.651-.219 0 0-.18.016-.34-.056-.11-.052-.154-.102-.182-.145s-.089-.207-.083-.277c.004-.07-.005-.12.146-.176s.796-.205.95-.157c.115.037.193.074.25.175.083-.169.158-.331.193-.41.09-.2.586-1.678 1.126-1.791zM12 13.313c-4.793-.01-6.226.206-6.532.266-.049.01-.074.054-.079.107-.008.088-.01.234.004.306.006.034.035.063.116.063 0 0 3.301-.11 6.491-.095 3.19-.014 6.492.095 6.492.095.08 0 .11-.029.116-.063.013-.072.011-.218.003-.306-.004-.053-.03-.097-.079-.107-.306-.06-1.739-.277-6.532-.267m-4.044-2.347s.063.784.118 1.197c.011.082.023.25.331.253.366.002 3.099-.035 3.595-.035s3.23.037 3.596.035c.307-.002.32-.171.33-.253.056-.413.119-1.197.119-1.197.01-.13-.112-.23-.295-.282-.65-.185-2.208-.27-3.75-.264-1.541-.006-3.1.079-3.75.264-.182.052-.305.152-.294.282"/></svg>
